<?xml version="1.0" encoding="UTF-8"?><svg id="layer_1" xmlns="http://www.w3.org/2000/svg" xmlns:xlink="http://www.w3.org/1999/xlink" viewBox="0 0 145 145"><defs><style>.cls-1{fill:#aae8d7;}.cls-2{fill:#23b899;}.cls-3{fill:#1e9e80;}.cls-4{fill:#397263;}.cls-5{filter:url(#drop-shadow-3);}.cls-6{fill:#fff;fill-rule:evenodd;}</style><filter id="drop-shadow-3" filterUnits="userSpaceOnUse"><feOffset dx="0" dy="2.69"/><feGaussianBlur result="blur" stdDeviation="0"/><feFlood flood-color="#397263" flood-opacity="1"/><feComposite in2="blur" operator="in"/><feComposite in="SourceGraphic"/></filter></defs><path class="cls-4" d="m134.98,140.68H10.02c-4.15,0-7.52-3.37-7.52-7.52v1.82c0,4.16,3.37,7.52,7.52,7.52h124.95c4.15,0,7.52-3.37,7.52-7.52v-1.82c0,4.15-3.37,7.52-7.52,7.52Z"/><path class="cls-1" d="m134.98,2.5H10.02c-4.15,0-7.52,3.37-7.52,7.52v1.82c0-4.16,3.37-7.52,7.52-7.52h124.95c4.15,0,7.52,3.37,7.52,7.52v-1.82c0-4.15-3.37-7.52-7.52-7.52Z"/><rect class="cls-2" x="2.5" y="4.32" width="140" height="136.36" rx="7.52" ry="7.52"/><path class="cls-3" d="m108.64,102.98l-34.63,37.7H10.03c-4.16,0-7.53-3.37-7.53-7.53v-48.73l33.88-42.86c1.13-1.03,18.55-7.73,20.07-7.94l10.28-1.4c.51-.07,1.02-.09,1.53-.05l22.81,1.56c1.92.13,3.71.99,5.01,2.4l19.08,20.62c.81.88,1.4,1.93,1.72,3.08l3.6,12.86c.48,1.71.34,3.54-.4,5.15l-11.45,25.12"/><g class="cls-5"><path class="cls-6" d="m118.74,61.36c-5.16-21.59-23.79-36.31-46.26-36.64-2.96.15-6.16.36-9.07.95-31.5,6.29-47.71,41.08-32.48,69.1.55.8.55,1.49.44,2.36-2.22,7.23-4.25,14.68-6.22,22.03q-.33,1.27.89.95c7.69-2.11,15.3-4.03,22.97-5.96.67-.18,1.14-.18,1.71.11,9.85,5.01,20.25,6.39,31.15,4.4,26.01-5.05,43.08-31.55,36.86-57.29Zm-39.59,49.65c-2.27.44-4.4.62-5.47.47-8.38,0-15.12-1.85-21.39-5.49-.89-.55-1.56-.69-2.42-.4-4.29,1.06-8.47,2.22-12.72,3.31-.87.25-.96.11-.76-.8,1.13-3.89,2.18-7.89,3.42-11.96.27-1.09.2-1.92-.49-2.83-8.6-13.96-8.22-31.23,1.4-44.17,10.01-13.37,23.77-18.94,40.11-15.45,16.12,3.38,26.45,13.88,30.12,29.92,5.21,21.95-9.61,43.8-31.79,47.4Z"/><path class="cls-6" d="m84.9,94.76c-1.66.15-3.33-.15-4.92-.66-10.85-3.16-19.07-9.81-25.66-18.86-2.45-3.34-4.8-6.94-5.51-11.16-1-4.91.54-9.31,4.27-12.69,1.24-1.17,4.85-1.71,6.32-.95.47.4.75.8,1.05,1.27,1.35,3.38,2.78,6.51,4.14,9.7.2.66.16,1.34-.2,2-.73,1.49-1.84,2.69-2.91,3.93-.91.76-.91,1.67-.29,2.62,3.89,6.47,9.14,11.12,16.19,13.89,1.02.44,1.8.25,2.44-.55,1.22-1.42,2.42-2.94,3.54-4.43.69-.95,1.62-1.09,2.64-.66,2.33,1.05,4.62,2.14,6.83,3.16.62.33,1.05.55,1.6.73,2.34,1.2,2.34,1.34,2.07,3.85-.31,4.98-4.11,7.49-8.45,8.69-1.18.25-2.13.25-3.16.11Z"/></g></svg>