<svg xmlns="http://www.w3.org/2000/svg" xmlns:xlink="http://www.w3.org/1999/xlink" width="500" zoomAndPan="magnify" viewBox="0 0 375 374.999991" height="500" preserveAspectRatio="xMidYMid meet" version="1.0"><defs><g/><clipPath id="ae4245a81e"><path d="M 91.476562 196.363281 L 293.226562 196.363281 L 293.226562 254.863281 L 91.476562 254.863281 Z M 91.476562 196.363281 " clip-rule="nonzero"/></clipPath></defs><rect x="-37.5" width="450" fill="#ffffff" y="-37.499999" height="449.999989" fill-opacity="1"/><rect x="-37.5" width="450" fill="#ffffff" y="-37.499999" height="449.999989" fill-opacity="1"/><rect x="-37.5" width="450" fill="#ffde59" y="-37.499999" height="449.999989" fill-opacity="1"/><g clip-path="url(#ae4245a81e)"><path fill="#000000" d="M 72.667969 214.714844 C 72.742188 214.382812 72.808594 214.0625 72.898438 213.742188 L 73.175781 212.804688 C 73.328125 212.183594 73.605469 211.601562 73.796875 211.027344 C 74.296875 209.894531 74.828125 208.839844 75.464844 207.859375 C 76.128906 206.898438 76.816406 205.976562 77.628906 205.160156 C 79.238281 203.519531 81.128906 202.160156 83.367188 201.160156 L 83.789062 200.960938 L 84.222656 200.796875 C 84.515625 200.691406 84.8125 200.566406 85.113281 200.457031 C 85.722656 200.292969 86.351562 200.042969 87.007812 199.898438 C 87.664062 199.730469 88.34375 199.605469 89.054688 199.484375 C 89.0625 199.484375 89.070312 199.480469 89.074219 199.480469 C 89.917969 199.347656 90.140625 198.21875 89.394531 197.8125 C 88.6875 197.425781 87.929688 197.121094 87.148438 196.886719 C 86.367188 196.652344 85.5625 196.550781 84.738281 196.441406 C 84.324219 196.394531 83.914062 196.410156 83.496094 196.402344 L 82.867188 196.402344 C 82.660156 196.410156 82.453125 196.441406 82.242188 196.460938 C 78.886719 196.773438 75.617188 198.414062 73.226562 200.890625 C 72.015625 202.121094 71.066406 203.589844 70.335938 205.136719 C 69.628906 206.703125 69.226562 208.382812 69.085938 210.058594 C 69.070312 210.476562 69.082031 210.898438 69.082031 211.316406 C 69.085938 211.523438 69.078125 211.726562 69.097656 211.9375 C 69.113281 212.144531 69.148438 212.347656 69.175781 212.554688 C 69.238281 212.964844 69.273438 213.371094 69.363281 213.769531 C 69.453125 214.167969 69.554688 214.5625 69.679688 214.949219 C 69.886719 215.570312 70.140625 216.179688 70.441406 216.75 C 70.90625 217.632812 72.234375 217.414062 72.371094 216.425781 C 72.453125 215.835938 72.546875 215.269531 72.667969 214.714844 Z M 290.015625 216.425781 C 290.152344 217.414062 291.480469 217.632812 291.941406 216.75 C 292.246094 216.179688 292.496094 215.570312 292.703125 214.949219 C 292.832031 214.5625 292.933594 214.167969 293.023438 213.769531 C 293.113281 213.371094 293.148438 212.964844 293.210938 212.554688 C 293.238281 212.347656 293.269531 212.144531 293.289062 211.9375 C 293.304688 211.726562 293.300781 211.523438 293.304688 211.316406 C 293.304688 210.898438 293.316406 210.476562 293.300781 210.058594 C 293.15625 208.382812 292.757812 206.703125 292.050781 205.136719 C 291.320312 203.589844 290.367188 202.121094 289.160156 200.890625 C 286.765625 198.414062 283.5 196.773438 280.140625 196.460938 C 279.933594 196.441406 279.726562 196.410156 279.515625 196.402344 L 278.886719 196.402344 C 278.472656 196.410156 278.058594 196.394531 277.648438 196.441406 C 276.824219 196.550781 276.015625 196.652344 275.238281 196.886719 C 274.453125 197.121094 273.699219 197.425781 272.992188 197.8125 C 272.246094 198.21875 272.46875 199.347656 273.308594 199.480469 C 273.316406 199.480469 273.324219 199.484375 273.332031 199.484375 C 274.042969 199.605469 274.722656 199.730469 275.378906 199.898438 C 276.03125 200.042969 276.664062 200.292969 277.269531 200.457031 C 277.574219 200.566406 277.871094 200.691406 278.160156 200.796875 L 278.597656 200.960938 L 279.015625 201.160156 C 281.257812 202.160156 283.148438 203.519531 284.757812 205.160156 C 285.570312 205.976562 286.253906 206.898438 286.921875 207.859375 C 287.558594 208.839844 288.085938 209.894531 288.589844 211.027344 C 288.777344 211.601562 289.058594 212.183594 289.207031 212.804688 L 289.488281 213.742188 C 289.578125 214.0625 289.644531 214.382812 289.714844 214.714844 C 289.835938 215.269531 289.933594 215.835938 290.015625 216.425781 Z M 180.367188 254.847656 C 162.585938 254.847656 144.921875 251.199219 127.867188 244.007812 C 111.359375 237.046875 95.386719 226.753906 80.386719 213.410156 C 79.25 212.402344 79.148438 210.660156 80.15625 209.523438 C 81.164062 208.386719 82.902344 208.28125 84.039062 209.292969 C 113.492188 235.492188 146.800781 249.339844 180.367188 249.339844 C 214.222656 249.339844 247.785156 235.265625 277.425781 208.640625 C 278.558594 207.625 280.296875 207.71875 281.3125 208.851562 C 282.324219 209.980469 282.230469 211.722656 281.101562 212.738281 C 266.011719 226.292969 249.925781 236.753906 233.292969 243.828125 C 216.105469 251.140625 198.300781 254.847656 180.367188 254.847656 " fill-opacity="1" fill-rule="nonzero"/></g><g fill="#000000" fill-opacity="1"><g transform="translate(121.71958, 306.710341)"><g><path d="M 20.234375 0 L 16.953125 -8.40625 L 6.359375 -8.40625 L 3.109375 0 L 0 0 L 10.4375 -26.515625 L 13.03125 -26.515625 L 23.421875 0 Z M 15.984375 -11.171875 L 12.921875 -19.34375 C 12.523438 -20.382812 12.113281 -21.65625 11.6875 -23.15625 C 11.425781 -22 11.046875 -20.726562 10.546875 -19.34375 L 7.4375 -11.171875 Z M 15.984375 -11.171875 "/></g></g></g><g fill="#000000" fill-opacity="1"><g transform="translate(145.131169, 306.710341)"><g><path d="M 28.421875 0 L 28.421875 -12.875 C 28.421875 -14.457031 28.082031 -15.640625 27.40625 -16.421875 C 26.726562 -17.210938 25.679688 -17.609375 24.265625 -17.609375 C 22.398438 -17.609375 21.019531 -17.070312 20.125 -16 C 19.238281 -14.9375 18.796875 -13.289062 18.796875 -11.0625 L 18.796875 0 L 15.796875 0 L 15.796875 -12.875 C 15.796875 -14.457031 15.457031 -15.640625 14.78125 -16.421875 C 14.101562 -17.210938 13.046875 -17.609375 11.609375 -17.609375 C 9.734375 -17.609375 8.359375 -17.046875 7.484375 -15.921875 C 6.609375 -14.796875 6.171875 -12.953125 6.171875 -10.390625 L 6.171875 0 L 3.1875 0 L 3.1875 -19.796875 L 5.625 -19.796875 L 6.109375 -17.09375 L 6.25 -17.09375 C 6.8125 -18.050781 7.609375 -18.800781 8.640625 -19.34375 C 9.671875 -19.882812 10.828125 -20.15625 12.109375 -20.15625 C 15.203125 -20.15625 17.222656 -19.035156 18.171875 -16.796875 L 18.3125 -16.796875 C 18.90625 -17.835938 19.757812 -18.65625 20.875 -19.25 C 22 -19.851562 23.28125 -20.15625 24.71875 -20.15625 C 26.957031 -20.15625 28.632812 -19.582031 29.75 -18.4375 C 30.863281 -17.289062 31.421875 -15.453125 31.421875 -12.921875 L 31.421875 0 Z M 28.421875 0 "/></g></g></g><g fill="#000000" fill-opacity="1"><g transform="translate(179.544043, 306.710341)"><g><path d="M 15.359375 0 L 14.765625 -2.8125 L 14.609375 -2.8125 C 13.628906 -1.570312 12.644531 -0.734375 11.65625 -0.296875 C 10.675781 0.140625 9.453125 0.359375 7.984375 0.359375 C 6.023438 0.359375 4.488281 -0.144531 3.375 -1.15625 C 2.257812 -2.164062 1.703125 -3.601562 1.703125 -5.46875 C 1.703125 -9.46875 4.898438 -11.566406 11.296875 -11.765625 L 14.65625 -11.875 L 14.65625 -13.09375 C 14.65625 -14.644531 14.316406 -15.789062 13.640625 -16.53125 C 12.972656 -17.28125 11.90625 -17.65625 10.4375 -17.65625 C 8.789062 -17.65625 6.925781 -17.148438 4.84375 -16.140625 L 3.921875 -18.421875 C 4.898438 -18.953125 5.96875 -19.367188 7.125 -19.671875 C 8.289062 -19.972656 9.457031 -20.125 10.625 -20.125 C 12.988281 -20.125 14.738281 -19.597656 15.875 -18.546875 C 17.007812 -17.503906 17.578125 -15.828125 17.578125 -13.515625 L 17.578125 0 Z M 8.578125 -2.109375 C 10.441406 -2.109375 11.90625 -2.617188 12.96875 -3.640625 C 14.039062 -4.671875 14.578125 -6.109375 14.578125 -7.953125 L 14.578125 -9.734375 L 11.578125 -9.609375 C 9.191406 -9.523438 7.472656 -9.15625 6.421875 -8.5 C 5.367188 -7.84375 4.84375 -6.820312 4.84375 -5.4375 C 4.84375 -4.351562 5.171875 -3.523438 5.828125 -2.953125 C 6.484375 -2.390625 7.398438 -2.109375 8.578125 -2.109375 Z M 8.578125 -2.109375 "/></g></g></g><g fill="#000000" fill-opacity="1"><g transform="translate(200.119512, 306.710341)"><g><path d="M 15.84375 0 L 1.484375 0 L 1.484375 -2.046875 L 12.28125 -17.46875 L 2.15625 -17.46875 L 2.15625 -19.796875 L 15.578125 -19.796875 L 15.578125 -17.46875 L 4.921875 -2.328125 L 15.84375 -2.328125 Z M 15.84375 0 "/></g></g></g><g fill="#000000" fill-opacity="1"><g transform="translate(217.425301, 306.710341)"><g><path d="M 20.265625 -9.921875 C 20.265625 -6.691406 19.453125 -4.171875 17.828125 -2.359375 C 16.203125 -0.546875 13.957031 0.359375 11.09375 0.359375 C 9.320312 0.359375 7.75 -0.0507812 6.375 -0.875 C 5 -1.707031 3.9375 -2.898438 3.1875 -4.453125 C 2.445312 -6.015625 2.078125 -7.835938 2.078125 -9.921875 C 2.078125 -13.148438 2.882812 -15.660156 4.5 -17.453125 C 6.113281 -19.253906 8.351562 -20.15625 11.21875 -20.15625 C 13.988281 -20.15625 16.1875 -19.234375 17.8125 -17.390625 C 19.445312 -15.554688 20.265625 -13.066406 20.265625 -9.921875 Z M 5.1875 -9.921875 C 5.1875 -7.390625 5.691406 -5.460938 6.703125 -4.140625 C 7.710938 -2.816406 9.203125 -2.15625 11.171875 -2.15625 C 13.128906 -2.15625 14.613281 -2.8125 15.625 -4.125 C 16.644531 -5.445312 17.15625 -7.378906 17.15625 -9.921875 C 17.15625 -12.429688 16.644531 -14.335938 15.625 -15.640625 C 14.613281 -16.953125 13.113281 -17.609375 11.125 -17.609375 C 9.164062 -17.609375 7.6875 -16.960938 6.6875 -15.671875 C 5.6875 -14.390625 5.1875 -12.472656 5.1875 -9.921875 Z M 5.1875 -9.921875 "/></g></g></g><g fill="#000000" fill-opacity="1"><g transform="translate(239.77109, 306.710341)"><g><path d="M 16.734375 0 L 16.734375 -12.8125 C 16.734375 -14.425781 16.363281 -15.628906 15.625 -16.421875 C 14.894531 -17.210938 13.742188 -17.609375 12.171875 -17.609375 C 10.097656 -17.609375 8.578125 -17.046875 7.609375 -15.921875 C 6.648438 -14.804688 6.171875 -12.960938 6.171875 -10.390625 L 6.171875 0 L 3.1875 0 L 3.1875 -19.796875 L 5.625 -19.796875 L 6.109375 -17.09375 L 6.25 -17.09375 C 6.863281 -18.0625 7.722656 -18.8125 8.828125 -19.34375 C 9.941406 -19.882812 11.175781 -20.15625 12.53125 -20.15625 C 14.914062 -20.15625 16.710938 -19.582031 17.921875 -18.4375 C 19.128906 -17.289062 19.734375 -15.453125 19.734375 -12.921875 L 19.734375 0 Z M 16.734375 0 "/></g></g></g><g fill="#000000" fill-opacity="1"><g transform="translate(54.219584, 358.460338)"><g><path d="M 14.9375 -24.046875 C 12.039062 -24.046875 9.75 -23.078125 8.0625 -21.140625 C 6.382812 -19.210938 5.546875 -16.566406 5.546875 -13.203125 C 5.546875 -9.742188 6.351562 -7.070312 7.96875 -5.1875 C 9.59375 -3.300781 11.90625 -2.359375 14.90625 -2.359375 C 16.75 -2.359375 18.847656 -2.691406 21.203125 -3.359375 L 21.203125 -0.671875 C 19.378906 0.015625 17.125 0.359375 14.4375 0.359375 C 10.539062 0.359375 7.535156 -0.816406 5.421875 -3.171875 C 3.316406 -5.535156 2.265625 -8.894531 2.265625 -13.25 C 2.265625 -15.96875 2.769531 -18.347656 3.78125 -20.390625 C 4.800781 -22.441406 6.269531 -24.019531 8.1875 -25.125 C 10.113281 -26.238281 12.378906 -26.796875 14.984375 -26.796875 C 17.742188 -26.796875 20.160156 -26.289062 22.234375 -25.28125 L 20.9375 -22.640625 C 18.9375 -23.578125 16.9375 -24.046875 14.9375 -24.046875 Z M 14.9375 -24.046875 "/></g></g></g><g fill="#000000" fill-opacity="1"><g transform="translate(77.558915, 358.460338)"><g><path d="M 20.265625 -9.921875 C 20.265625 -6.691406 19.453125 -4.171875 17.828125 -2.359375 C 16.203125 -0.546875 13.957031 0.359375 11.09375 0.359375 C 9.320312 0.359375 7.75 -0.0507812 6.375 -0.875 C 5 -1.707031 3.9375 -2.898438 3.1875 -4.453125 C 2.445312 -6.015625 2.078125 -7.835938 2.078125 -9.921875 C 2.078125 -13.148438 2.882812 -15.660156 4.5 -17.453125 C 6.113281 -19.253906 8.351562 -20.15625 11.21875 -20.15625 C 13.988281 -20.15625 16.1875 -19.234375 17.8125 -17.390625 C 19.445312 -15.554688 20.265625 -13.066406 20.265625 -9.921875 Z M 5.1875 -9.921875 C 5.1875 -7.390625 5.691406 -5.460938 6.703125 -4.140625 C 7.710938 -2.816406 9.203125 -2.15625 11.171875 -2.15625 C 13.128906 -2.15625 14.613281 -2.8125 15.625 -4.125 C 16.644531 -5.445312 17.15625 -7.378906 17.15625 -9.921875 C 17.15625 -12.429688 16.644531 -14.335938 15.625 -15.640625 C 14.613281 -16.953125 13.113281 -17.609375 11.125 -17.609375 C 9.164062 -17.609375 7.6875 -16.960938 6.6875 -15.671875 C 5.6875 -14.390625 5.1875 -12.472656 5.1875 -9.921875 Z M 5.1875 -9.921875 "/></g></g></g><g fill="#000000" fill-opacity="1"><g transform="translate(99.904705, 358.460338)"><g><path d="M 16.734375 0 L 16.734375 -12.8125 C 16.734375 -14.425781 16.363281 -15.628906 15.625 -16.421875 C 14.894531 -17.210938 13.742188 -17.609375 12.171875 -17.609375 C 10.097656 -17.609375 8.578125 -17.046875 7.609375 -15.921875 C 6.648438 -14.804688 6.171875 -12.960938 6.171875 -10.390625 L 6.171875 0 L 3.1875 0 L 3.1875 -19.796875 L 5.625 -19.796875 L 6.109375 -17.09375 L 6.25 -17.09375 C 6.863281 -18.0625 7.722656 -18.8125 8.828125 -19.34375 C 9.941406 -19.882812 11.175781 -20.15625 12.53125 -20.15625 C 14.914062 -20.15625 16.710938 -19.582031 17.921875 -18.4375 C 19.128906 -17.289062 19.734375 -15.453125 19.734375 -12.921875 L 19.734375 0 Z M 16.734375 0 "/></g></g></g><g fill="#000000" fill-opacity="1"><g transform="translate(122.611784, 358.460338)"><g><path d="M 16.734375 0 L 16.734375 -12.8125 C 16.734375 -14.425781 16.363281 -15.628906 15.625 -16.421875 C 14.894531 -17.210938 13.742188 -17.609375 12.171875 -17.609375 C 10.097656 -17.609375 8.578125 -17.046875 7.609375 -15.921875 C 6.648438 -14.804688 6.171875 -12.960938 6.171875 -10.390625 L 6.171875 0 L 3.1875 0 L 3.1875 -19.796875 L 5.625 -19.796875 L 6.109375 -17.09375 L 6.25 -17.09375 C 6.863281 -18.0625 7.722656 -18.8125 8.828125 -19.34375 C 9.941406 -19.882812 11.175781 -20.15625 12.53125 -20.15625 C 14.914062 -20.15625 16.710938 -19.582031 17.921875 -18.4375 C 19.128906 -17.289062 19.734375 -15.453125 19.734375 -12.921875 L 19.734375 0 Z M 16.734375 0 "/></g></g></g><g fill="#000000" fill-opacity="1"><g transform="translate(145.318864, 358.460338)"><g><path d="M 11.546875 0.359375 C 8.617188 0.359375 6.304688 -0.53125 4.609375 -2.3125 C 2.921875 -4.09375 2.078125 -6.566406 2.078125 -9.734375 C 2.078125 -12.929688 2.863281 -15.46875 4.4375 -17.34375 C 6.007812 -19.21875 8.117188 -20.15625 10.765625 -20.15625 C 13.242188 -20.15625 15.207031 -19.335938 16.65625 -17.703125 C 18.101562 -16.078125 18.828125 -13.925781 18.828125 -11.25 L 18.828125 -9.359375 L 5.1875 -9.359375 C 5.25 -7.035156 5.835938 -5.269531 6.953125 -4.0625 C 8.066406 -2.863281 9.632812 -2.265625 11.65625 -2.265625 C 13.78125 -2.265625 15.882812 -2.707031 17.96875 -3.59375 L 17.96875 -0.921875 C 16.914062 -0.460938 15.914062 -0.132812 14.96875 0.0625 C 14.019531 0.257812 12.878906 0.359375 11.546875 0.359375 Z M 10.734375 -17.65625 C 9.140625 -17.65625 7.867188 -17.132812 6.921875 -16.09375 C 5.984375 -15.0625 5.425781 -13.628906 5.25 -11.796875 L 15.609375 -11.796875 C 15.609375 -13.691406 15.1875 -15.140625 14.34375 -16.140625 C 13.5 -17.148438 12.296875 -17.65625 10.734375 -17.65625 Z M 10.734375 -17.65625 "/></g></g></g><g fill="#000000" fill-opacity="1"><g transform="translate(166.074978, 358.460338)"><g><path d="M 11.09375 0.359375 C 8.226562 0.359375 6.007812 -0.519531 4.4375 -2.28125 C 2.863281 -4.050781 2.078125 -6.550781 2.078125 -9.78125 C 2.078125 -13.09375 2.875 -15.648438 4.46875 -17.453125 C 6.0625 -19.253906 8.335938 -20.15625 11.296875 -20.15625 C 12.242188 -20.15625 13.191406 -20.050781 14.140625 -19.84375 C 15.097656 -19.644531 15.847656 -19.40625 16.390625 -19.125 L 15.46875 -16.578125 C 14.800781 -16.847656 14.078125 -17.066406 13.296875 -17.234375 C 12.515625 -17.410156 11.820312 -17.5 11.21875 -17.5 C 7.195312 -17.5 5.1875 -14.9375 5.1875 -9.8125 C 5.1875 -7.375 5.675781 -5.503906 6.65625 -4.203125 C 7.632812 -2.910156 9.085938 -2.265625 11.015625 -2.265625 C 12.671875 -2.265625 14.363281 -2.617188 16.09375 -3.328125 L 16.09375 -0.671875 C 14.769531 0.015625 13.101562 0.359375 11.09375 0.359375 Z M 11.09375 0.359375 "/></g></g></g><g fill="#000000" fill-opacity="1"><g transform="translate(183.687868, 358.460338)"><g><path d="M 9.578125 -2.109375 C 10.109375 -2.109375 10.617188 -2.144531 11.109375 -2.21875 C 11.609375 -2.300781 12 -2.382812 12.28125 -2.46875 L 12.28125 -0.1875 C 11.957031 -0.03125 11.476562 0.0976562 10.84375 0.203125 C 10.21875 0.304688 9.648438 0.359375 9.140625 0.359375 C 5.304688 0.359375 3.390625 -1.65625 3.390625 -5.6875 L 3.390625 -17.46875 L 0.5625 -17.46875 L 0.5625 -18.921875 L 3.390625 -20.15625 L 4.65625 -24.390625 L 6.390625 -24.390625 L 6.390625 -19.796875 L 12.140625 -19.796875 L 12.140625 -17.46875 L 6.390625 -17.46875 L 6.390625 -5.8125 C 6.390625 -4.625 6.671875 -3.707031 7.234375 -3.0625 C 7.804688 -2.425781 8.585938 -2.109375 9.578125 -2.109375 Z M 9.578125 -2.109375 "/></g></g></g><g fill="#000000" fill-opacity="1"><g transform="translate(196.748506, 358.460338)"><g><path d="M 20.265625 -9.921875 C 20.265625 -6.691406 19.453125 -4.171875 17.828125 -2.359375 C 16.203125 -0.546875 13.957031 0.359375 11.09375 0.359375 C 9.320312 0.359375 7.75 -0.0507812 6.375 -0.875 C 5 -1.707031 3.9375 -2.898438 3.1875 -4.453125 C 2.445312 -6.015625 2.078125 -7.835938 2.078125 -9.921875 C 2.078125 -13.148438 2.882812 -15.660156 4.5 -17.453125 C 6.113281 -19.253906 8.351562 -20.15625 11.21875 -20.15625 C 13.988281 -20.15625 16.1875 -19.234375 17.8125 -17.390625 C 19.445312 -15.554688 20.265625 -13.066406 20.265625 -9.921875 Z M 5.1875 -9.921875 C 5.1875 -7.390625 5.691406 -5.460938 6.703125 -4.140625 C 7.710938 -2.816406 9.203125 -2.15625 11.171875 -2.15625 C 13.128906 -2.15625 14.613281 -2.8125 15.625 -4.125 C 16.644531 -5.445312 17.15625 -7.378906 17.15625 -9.921875 C 17.15625 -12.429688 16.644531 -14.335938 15.625 -15.640625 C 14.613281 -16.953125 13.113281 -17.609375 11.125 -17.609375 C 9.164062 -17.609375 7.6875 -16.960938 6.6875 -15.671875 C 5.6875 -14.390625 5.1875 -12.472656 5.1875 -9.921875 Z M 5.1875 -9.921875 "/></g></g></g><g fill="#000000" fill-opacity="1"><g transform="translate(219.094296, 358.460338)"><g><path d="M 12.21875 -20.15625 C 13.09375 -20.15625 13.878906 -20.085938 14.578125 -19.953125 L 14.171875 -17.15625 C 13.347656 -17.34375 12.625 -17.4375 12 -17.4375 C 10.394531 -17.4375 9.019531 -16.785156 7.875 -15.484375 C 6.738281 -14.179688 6.171875 -12.5625 6.171875 -10.625 L 6.171875 0 L 3.1875 0 L 3.1875 -19.796875 L 5.65625 -19.796875 L 6 -16.140625 L 6.140625 -16.140625 C 6.878906 -17.421875 7.765625 -18.410156 8.796875 -19.109375 C 9.835938 -19.804688 10.976562 -20.15625 12.21875 -20.15625 Z M 12.21875 -20.15625 "/></g></g></g><g fill="#000000" fill-opacity="1"><g transform="translate(234.196216, 358.460338)"><g/></g></g><g fill="#000000" fill-opacity="1"><g transform="translate(243.806529, 358.460338)"><g><path d="M 18.53125 -7.03125 C 18.53125 -4.707031 17.6875 -2.894531 16 -1.59375 C 14.320312 -0.289062 12.035156 0.359375 9.140625 0.359375 C 6.003906 0.359375 3.597656 -0.0390625 1.921875 -0.84375 L 1.921875 -3.8125 C 3.003906 -3.351562 4.179688 -2.988281 5.453125 -2.71875 C 6.734375 -2.457031 8 -2.328125 9.25 -2.328125 C 11.300781 -2.328125 12.84375 -2.710938 13.875 -3.484375 C 14.90625 -4.265625 15.421875 -5.347656 15.421875 -6.734375 C 15.421875 -7.648438 15.238281 -8.398438 14.875 -8.984375 C 14.507812 -9.566406 13.894531 -10.101562 13.03125 -10.59375 C 12.175781 -11.09375 10.867188 -11.65625 9.109375 -12.28125 C 6.648438 -13.164062 4.894531 -14.207031 3.84375 -15.40625 C 2.789062 -16.613281 2.265625 -18.1875 2.265625 -20.125 C 2.265625 -22.15625 3.023438 -23.773438 4.546875 -24.984375 C 6.078125 -26.191406 8.101562 -26.796875 10.625 -26.796875 C 13.25 -26.796875 15.664062 -26.3125 17.875 -25.34375 L 16.90625 -22.671875 C 14.726562 -23.585938 12.609375 -24.046875 10.546875 -24.046875 C 8.921875 -24.046875 7.648438 -23.695312 6.734375 -23 C 5.816406 -22.300781 5.359375 -21.332031 5.359375 -20.09375 C 5.359375 -19.175781 5.523438 -18.425781 5.859375 -17.84375 C 6.203125 -17.257812 6.773438 -16.722656 7.578125 -16.234375 C 8.378906 -15.742188 9.601562 -15.203125 11.25 -14.609375 C 14.019531 -13.628906 15.925781 -12.570312 16.96875 -11.4375 C 18.007812 -10.300781 18.53125 -8.832031 18.53125 -7.03125 Z M 18.53125 -7.03125 "/></g></g></g><g fill="#000000" fill-opacity="1"><g transform="translate(264.111036, 358.460338)"><g><path d="M 6 -19.796875 L 6 -6.953125 C 6 -5.335938 6.363281 -4.132812 7.09375 -3.34375 C 7.832031 -2.550781 8.984375 -2.15625 10.546875 -2.15625 C 12.617188 -2.15625 14.132812 -2.71875 15.09375 -3.84375 C 16.050781 -4.976562 16.53125 -6.828125 16.53125 -9.390625 L 16.53125 -19.796875 L 19.53125 -19.796875 L 19.53125 0 L 17.0625 0 L 16.625 -2.65625 L 16.453125 -2.65625 C 15.835938 -1.675781 14.984375 -0.925781 13.890625 -0.40625 C 12.804688 0.101562 11.566406 0.359375 10.171875 0.359375 C 7.765625 0.359375 5.960938 -0.210938 4.765625 -1.359375 C 3.566406 -2.503906 2.96875 -4.332031 2.96875 -6.84375 L 2.96875 -19.796875 Z M 6 -19.796875 "/></g></g></g><g fill="#000000" fill-opacity="1"><g transform="translate(286.818127, 358.460338)"><g><path d="M 6.171875 0 L 3.1875 0 L 3.1875 -19.796875 L 6.171875 -19.796875 Z M 2.921875 -25.171875 C 2.921875 -25.859375 3.085938 -26.359375 3.421875 -26.671875 C 3.765625 -26.992188 4.191406 -27.15625 4.703125 -27.15625 C 5.179688 -27.15625 5.59375 -26.988281 5.9375 -26.65625 C 6.289062 -26.332031 6.46875 -25.835938 6.46875 -25.171875 C 6.46875 -24.492188 6.289062 -23.988281 5.9375 -23.65625 C 5.59375 -23.320312 5.179688 -23.15625 4.703125 -23.15625 C 4.191406 -23.15625 3.765625 -23.320312 3.421875 -23.65625 C 3.085938 -23.988281 2.921875 -24.492188 2.921875 -25.171875 Z M 2.921875 -25.171875 "/></g></g></g><g fill="#000000" fill-opacity="1"><g transform="translate(296.175548, 358.460338)"><g><path d="M 9.578125 -2.109375 C 10.109375 -2.109375 10.617188 -2.144531 11.109375 -2.21875 C 11.609375 -2.300781 12 -2.382812 12.28125 -2.46875 L 12.28125 -0.1875 C 11.957031 -0.03125 11.476562 0.0976562 10.84375 0.203125 C 10.21875 0.304688 9.648438 0.359375 9.140625 0.359375 C 5.304688 0.359375 3.390625 -1.65625 3.390625 -5.6875 L 3.390625 -17.46875 L 0.5625 -17.46875 L 0.5625 -18.921875 L 3.390625 -20.15625 L 4.65625 -24.390625 L 6.390625 -24.390625 L 6.390625 -19.796875 L 12.140625 -19.796875 L 12.140625 -17.46875 L 6.390625 -17.46875 L 6.390625 -5.8125 C 6.390625 -4.625 6.671875 -3.707031 7.234375 -3.0625 C 7.804688 -2.425781 8.585938 -2.109375 9.578125 -2.109375 Z M 9.578125 -2.109375 "/></g></g></g><g fill="#000000" fill-opacity="1"><g transform="translate(309.236186, 358.460338)"><g><path d="M 11.546875 0.359375 C 8.617188 0.359375 6.304688 -0.53125 4.609375 -2.3125 C 2.921875 -4.09375 2.078125 -6.566406 2.078125 -9.734375 C 2.078125 -12.929688 2.863281 -15.46875 4.4375 -17.34375 C 6.007812 -19.21875 8.117188 -20.15625 10.765625 -20.15625 C 13.242188 -20.15625 15.207031 -19.335938 16.65625 -17.703125 C 18.101562 -16.078125 18.828125 -13.925781 18.828125 -11.25 L 18.828125 -9.359375 L 5.1875 -9.359375 C 5.25 -7.035156 5.835938 -5.269531 6.953125 -4.0625 C 8.066406 -2.863281 9.632812 -2.265625 11.65625 -2.265625 C 13.78125 -2.265625 15.882812 -2.707031 17.96875 -3.59375 L 17.96875 -0.921875 C 16.914062 -0.460938 15.914062 -0.132812 14.96875 0.0625 C 14.019531 0.257812 12.878906 0.359375 11.546875 0.359375 Z M 10.734375 -17.65625 C 9.140625 -17.65625 7.867188 -17.132812 6.921875 -16.09375 C 5.984375 -15.0625 5.425781 -13.628906 5.25 -11.796875 L 15.609375 -11.796875 C 15.609375 -13.691406 15.1875 -15.140625 14.34375 -16.140625 C 13.5 -17.148438 12.296875 -17.65625 10.734375 -17.65625 Z M 10.734375 -17.65625 "/></g></g></g><g fill="#000000" fill-opacity="1"><g transform="translate(54.886798, 162.458165)"><g><path d="M 71.328125 0 L 59.734375 -29.609375 L 22.421875 -29.609375 L 10.953125 0 L 0 0 L 36.8125 -93.484375 L 45.921875 -93.484375 L 82.53125 0 Z M 56.359375 -39.359375 L 45.53125 -68.203125 C 44.132812 -71.859375 42.691406 -76.335938 41.203125 -81.640625 C 40.265625 -77.566406 38.925781 -73.085938 37.1875 -68.203125 L 26.234375 -39.359375 Z M 56.359375 -39.359375 "/></g></g></g><g fill="#000000" fill-opacity="1"><g transform="translate(137.409497, 162.458165)"><g><path d="M 54 0 L 22.421875 -82.53125 L 21.90625 -82.53125 C 22.5 -75.988281 22.796875 -68.21875 22.796875 -59.21875 L 22.796875 0 L 12.796875 0 L 12.796875 -93.109375 L 29.109375 -93.109375 L 58.59375 -16.296875 L 59.09375 -16.296875 L 88.84375 -93.109375 L 105.015625 -93.109375 L 105.015625 0 L 94.1875 0 L 94.1875 -59.984375 C 94.1875 -66.867188 94.484375 -74.34375 95.078125 -82.40625 L 94.5625 -82.40625 L 62.734375 0 Z M 54 0 "/></g></g></g><g fill="#000000" fill-opacity="1"><g transform="translate(255.144429, 162.458165)"><g><path d="M 69.21875 0 L 5.21875 0 L 5.21875 -8.46875 L 54.640625 -83.359375 L 6.75 -83.359375 L 6.75 -93.109375 L 67.828125 -93.109375 L 67.828125 -84.640625 L 18.40625 -9.8125 L 69.21875 -9.8125 Z M 69.21875 0 "/></g></g></g></svg>