<?xml version="1.0" encoding="UTF-8"?>
<svg xmlns="http://www.w3.org/2000/svg" xmlns:xlink="http://www.w3.org/1999/xlink" width="64px" height="64px" viewBox="0 0 64 64" version="1.1">
<g id="surface1">
<path style=" stroke:none;fill-rule:nonzero;fill:rgb(27.058824%,27.058824%,27.058824%);fill-opacity:1;" d="M 1.703125 35.625 L 1.703125 37.976562 C 1.703125 38.53125 2.152344 38.984375 2.710938 38.984375 L 7.167969 38.984375 C 7.726562 38.984375 8.179688 38.53125 8.179688 37.976562 L 8.179688 35.625 Z M 1.703125 35.625 "/>
<path style=" stroke:none;fill-rule:nonzero;fill:rgb(27.058824%,27.058824%,27.058824%);fill-opacity:1;" d="M 7.167969 39.707031 L 2.710938 39.707031 C 1.757812 39.707031 0.980469 38.929688 0.980469 37.972656 L 0.980469 34.902344 L 8.898438 34.902344 L 8.898438 37.972656 C 8.898438 38.929688 8.125 39.707031 7.167969 39.707031 Z M 2.421875 36.347656 L 2.421875 37.976562 C 2.421875 38.132812 2.550781 38.265625 2.710938 38.265625 L 7.167969 38.265625 C 7.328125 38.265625 7.457031 38.132812 7.457031 37.976562 L 7.457031 36.347656 Z M 2.421875 36.347656 "/>
<path style=" stroke:none;fill-rule:nonzero;fill:rgb(100%,84.705882%,36.078431%);fill-opacity:1;" d="M 30.890625 24.757812 L 27.925781 21.683594 L 26.140625 15.460938 C 25.832031 14.667969 25.070312 14.148438 24.222656 14.148438 L 8.566406 14.148438 C 7.71875 14.148438 6.957031 14.667969 6.648438 15.460938 L 4.863281 21.683594 L 1.898438 24.757812 C 1.207031 25.480469 0.84375 26.457031 0.898438 27.457031 L 1.347656 35.625 L 8.796875 35.625 C 9.363281 35.625 9.898438 35.351562 10.230469 34.890625 C 10.558594 34.433594 11.09375 34.160156 11.660156 34.160156 L 21.128906 34.160156 C 21.695312 34.160156 22.230469 34.433594 22.558594 34.890625 C 22.890625 35.351562 23.425781 35.625 23.992188 35.625 L 31.441406 35.625 L 31.890625 27.457031 C 31.949219 26.457031 31.585938 25.480469 30.890625 24.757812 Z M 30.890625 24.757812 "/>
<path style=" stroke:none;fill-rule:nonzero;fill:rgb(100%,84.705882%,36.078431%);fill-opacity:1;" d="M 31.441406 36.164062 L 23.992188 36.164062 C 23.253906 36.164062 22.554688 35.808594 22.121094 35.210938 C 21.890625 34.890625 21.523438 34.699219 21.128906 34.699219 L 11.660156 34.699219 C 11.269531 34.699219 10.898438 34.890625 10.667969 35.207031 C 10.234375 35.808594 9.535156 36.164062 8.796875 36.164062 L 1.347656 36.164062 C 1.0625 36.164062 0.824219 35.941406 0.808594 35.65625 L 0.359375 27.488281 C 0.292969 26.339844 0.714844 25.210938 1.511719 24.382812 L 4.378906 21.402344 L 6.128906 15.308594 C 6.132812 15.292969 6.140625 15.277344 6.144531 15.261719 C 6.53125 14.269531 7.503906 13.605469 8.566406 13.605469 L 24.222656 13.605469 C 25.289062 13.605469 26.261719 14.269531 26.644531 15.261719 C 26.652344 15.277344 26.65625 15.292969 26.660156 15.308594 L 28.410156 21.402344 L 31.277344 24.382812 C 32.074219 25.210938 32.496094 26.339844 32.433594 27.488281 L 31.980469 35.65625 C 31.964844 35.941406 31.726562 36.164062 31.441406 36.164062 Z M 11.660156 33.621094 L 21.128906 33.621094 C 21.867188 33.621094 22.566406 33.976562 23 34.574219 C 23.230469 34.894531 23.601562 35.085938 23.992188 35.085938 L 30.929688 35.085938 L 31.351562 27.429688 C 31.398438 26.582031 31.089844 25.746094 30.5 25.132812 L 27.539062 22.058594 C 27.476562 21.996094 27.429688 21.917969 27.40625 21.832031 L 25.628906 15.632812 C 25.398438 15.066406 24.835938 14.6875 24.222656 14.6875 L 8.566406 14.6875 C 7.953125 14.6875 7.390625 15.066406 7.164062 15.632812 L 5.382812 21.832031 C 5.359375 21.917969 5.316406 21.992188 5.253906 22.058594 L 2.289062 25.132812 C 1.703125 25.746094 1.390625 26.582031 1.4375 27.429688 L 1.863281 35.085938 L 8.796875 35.085938 C 9.191406 35.085938 9.5625 34.894531 9.792969 34.574219 C 10.222656 33.976562 10.921875 33.621094 11.660156 33.621094 Z M 11.660156 33.621094 "/>
<path style=" stroke:none;fill-rule:nonzero;fill:rgb(100%,100%,100%);fill-opacity:1;" d="M 9.601562 30.320312 L 3.742188 29.832031 C 3.28125 29.796875 2.90625 29.457031 2.816406 29.007812 L 2.636719 28.105469 C 2.488281 27.371094 3.148438 26.730469 3.875 26.898438 L 9.917969 28.289062 C 10.386719 28.394531 10.71875 28.8125 10.71875 29.292969 C 10.71875 29.894531 10.203125 30.371094 9.601562 30.320312 Z M 9.601562 30.320312 "/>
<path style=" stroke:none;fill-rule:nonzero;fill:rgb(89.803922%,89.803922%,89.803922%);fill-opacity:1;" d="M 23.917969 14.4375 L 8.871094 14.4375 C 8.054688 14.4375 7.324219 14.941406 7.027344 15.699219 L 5.3125 21.683594 L 27.480469 21.683594 L 25.761719 15.699219 C 25.464844 14.941406 24.734375 14.4375 23.917969 14.4375 Z M 23.917969 14.4375 "/>
<path style=" stroke:none;fill-rule:nonzero;fill:rgb(27.058824%,27.058824%,27.058824%);fill-opacity:1;" d="M 55.75 35.625 L 55.75 37.976562 C 55.75 38.53125 56.203125 38.984375 56.757812 38.984375 L 61.214844 38.984375 C 61.773438 38.984375 62.226562 38.53125 62.226562 37.976562 L 62.226562 35.625 Z M 55.75 35.625 "/>
<path style=" stroke:none;fill-rule:nonzero;fill:rgb(27.058824%,27.058824%,27.058824%);fill-opacity:1;" d="M 61.214844 39.707031 L 56.761719 39.707031 C 55.804688 39.707031 55.027344 38.929688 55.027344 37.972656 L 55.027344 34.902344 L 62.949219 34.902344 L 62.949219 37.972656 C 62.949219 38.929688 62.171875 39.707031 61.214844 39.707031 Z M 56.46875 36.347656 L 56.46875 37.976562 C 56.46875 38.132812 56.601562 38.265625 56.757812 38.265625 L 61.214844 38.265625 C 61.375 38.265625 61.503906 38.132812 61.503906 37.976562 L 61.503906 36.347656 Z M 56.46875 36.347656 "/>
<path style=" stroke:none;fill-rule:nonzero;fill:rgb(47.843137%,88.627451%,32.941176%);fill-opacity:1;" d="M 62.027344 24.757812 L 59.066406 21.683594 L 57.277344 15.460938 C 56.972656 14.667969 56.210938 14.148438 55.363281 14.148438 L 39.707031 14.148438 C 38.855469 14.148438 38.09375 14.667969 37.789062 15.460938 L 36.003906 21.683594 L 33.039062 24.757812 C 32.34375 25.480469 31.980469 26.457031 32.035156 27.457031 L 32.488281 35.625 L 39.9375 35.625 C 40.503906 35.625 41.035156 35.351562 41.367188 34.890625 C 41.699219 34.433594 42.234375 34.160156 42.800781 34.160156 L 52.269531 34.160156 C 52.835938 34.160156 53.367188 34.433594 53.699219 34.890625 C 54.03125 35.351562 54.5625 35.625 55.132812 35.625 L 62.578125 35.625 L 63.03125 27.457031 C 63.085938 26.457031 62.722656 25.480469 62.027344 24.757812 Z M 62.027344 24.757812 "/>
<path style=" stroke:none;fill-rule:nonzero;fill:rgb(47.843137%,88.627451%,32.941176%);fill-opacity:1;" d="M 62.578125 36.164062 L 55.132812 36.164062 C 54.394531 36.164062 53.695312 35.808594 53.261719 35.210938 C 53.03125 34.890625 52.660156 34.699219 52.269531 34.699219 L 42.800781 34.699219 C 42.40625 34.699219 42.035156 34.890625 41.804688 35.207031 C 41.375 35.808594 40.675781 36.164062 39.933594 36.164062 L 32.488281 36.164062 C 32.199219 36.164062 31.964844 35.941406 31.949219 35.65625 L 31.496094 27.488281 C 31.433594 26.339844 31.851562 25.210938 32.648438 24.382812 L 35.519531 21.402344 L 37.269531 15.308594 C 37.273438 15.292969 37.277344 15.277344 37.285156 15.261719 C 37.667969 14.269531 38.640625 13.605469 39.703125 13.605469 L 55.363281 13.605469 C 56.425781 13.605469 57.398438 14.269531 57.78125 15.261719 C 57.789062 15.277344 57.792969 15.292969 57.796875 15.308594 L 59.546875 21.402344 L 62.417969 24.382812 C 63.214844 25.210938 63.632812 26.339844 63.570312 27.488281 L 63.117188 35.65625 C 63.101562 35.941406 62.867188 36.164062 62.578125 36.164062 Z M 42.800781 33.621094 L 52.269531 33.621094 C 53.007812 33.621094 53.707031 33.976562 54.136719 34.574219 C 54.367188 34.894531 54.738281 35.085938 55.132812 35.085938 L 62.066406 35.085938 L 62.492188 27.429688 C 62.539062 26.582031 62.226562 25.746094 61.640625 25.132812 L 58.675781 22.058594 C 58.617188 21.996094 58.570312 21.917969 58.546875 21.832031 L 56.765625 15.632812 C 56.539062 15.066406 55.976562 14.6875 55.363281 14.6875 L 39.703125 14.6875 C 39.089844 14.6875 38.53125 15.066406 38.300781 15.632812 L 36.523438 21.832031 C 36.496094 21.917969 36.453125 21.992188 36.390625 22.058594 L 33.429688 25.132812 C 32.839844 25.746094 32.53125 26.582031 32.578125 27.429688 L 33 35.085938 L 39.9375 35.085938 C 40.328125 35.085938 40.699219 34.894531 40.929688 34.574219 C 41.359375 33.976562 42.058594 33.621094 42.800781 33.621094 Z M 42.800781 33.621094 "/>
<path style=" stroke:none;fill-rule:nonzero;fill:rgb(100%,100%,100%);fill-opacity:1;" d="M 54 30.320312 L 59.859375 29.832031 C 60.320312 29.796875 60.695312 29.457031 60.785156 29.007812 L 60.964844 28.105469 C 61.113281 27.371094 60.453125 26.730469 59.722656 26.898438 L 53.683594 28.289062 C 53.214844 28.394531 52.882812 28.8125 52.882812 29.292969 C 52.882812 29.894531 53.398438 30.371094 54 30.320312 Z M 54 30.320312 "/>
<path style=" stroke:none;fill-rule:nonzero;fill:rgb(89.803922%,89.803922%,89.803922%);fill-opacity:1;" d="M 55.058594 14.4375 L 40.007812 14.4375 C 39.195312 14.4375 38.460938 14.941406 38.167969 15.699219 L 36.449219 21.683594 L 58.617188 21.683594 L 56.902344 15.699219 C 56.605469 14.941406 55.875 14.4375 55.058594 14.4375 Z M 55.058594 14.4375 "/>
<path style=" stroke:none;fill-rule:nonzero;fill:rgb(27.058824%,27.058824%,27.058824%);fill-opacity:1;" d="M 13.511719 44.800781 L 13.511719 47.980469 C 13.511719 48.734375 14.125 49.347656 14.878906 49.347656 L 20.90625 49.347656 C 21.664062 49.347656 22.273438 48.734375 22.273438 47.980469 L 22.273438 44.800781 Z M 13.511719 44.800781 "/>
<path style=" stroke:none;fill-rule:nonzero;fill:rgb(27.058824%,27.058824%,27.058824%);fill-opacity:1;" d="M 20.90625 50.324219 L 14.878906 50.324219 C 13.585938 50.324219 12.535156 49.273438 12.535156 47.980469 L 12.535156 43.824219 L 23.25 43.824219 L 23.25 47.980469 C 23.25 49.273438 22.199219 50.324219 20.90625 50.324219 Z M 14.488281 45.777344 L 14.488281 47.980469 C 14.488281 48.195312 14.664062 48.371094 14.878906 48.371094 L 20.90625 48.371094 C 21.121094 48.371094 21.296875 48.195312 21.296875 47.980469 L 21.296875 45.777344 Z M 14.488281 45.777344 "/>
<path style=" stroke:none;fill-rule:nonzero;fill:rgb(27.058824%,27.058824%,27.058824%);fill-opacity:1;" d="M 44.507812 44.800781 L 44.507812 47.980469 C 44.507812 48.734375 45.117188 49.347656 45.871094 49.347656 L 51.902344 49.347656 C 52.65625 49.347656 53.269531 48.734375 53.269531 47.980469 L 53.269531 44.800781 Z M 44.507812 44.800781 "/>
<path style=" stroke:none;fill-rule:nonzero;fill:rgb(27.058824%,27.058824%,27.058824%);fill-opacity:1;" d="M 51.902344 50.324219 L 45.871094 50.324219 C 44.582031 50.324219 43.53125 49.273438 43.53125 47.980469 L 43.53125 43.824219 L 54.242188 43.824219 L 54.242188 47.980469 C 54.242188 49.273438 53.195312 50.324219 51.902344 50.324219 Z M 45.480469 45.777344 L 45.480469 47.980469 C 45.480469 48.195312 45.65625 48.371094 45.871094 48.371094 L 51.902344 48.371094 C 52.117188 48.371094 52.292969 48.195312 52.292969 47.980469 L 52.292969 45.777344 Z M 45.480469 45.777344 "/>
<path style=" stroke:none;fill-rule:nonzero;fill:rgb(91.372549%,32.54902%,32.54902%);fill-opacity:1;" d="M 53 30.101562 L 48.992188 25.9375 L 46.574219 17.519531 C 46.160156 16.449219 45.128906 15.742188 43.980469 15.742188 L 22.796875 15.742188 C 21.648438 15.742188 20.621094 16.449219 20.203125 17.519531 L 17.789062 25.9375 L 13.78125 30.101562 C 12.839844 31.078125 12.347656 32.398438 12.425781 33.753906 L 13.035156 44.800781 L 23.109375 44.800781 C 23.878906 44.800781 24.597656 44.433594 25.046875 43.8125 C 25.496094 43.1875 26.21875 42.820312 26.984375 42.820312 L 39.792969 42.820312 C 40.5625 42.820312 41.28125 43.1875 41.730469 43.8125 C 42.179688 44.433594 42.902344 44.800781 43.667969 44.800781 L 53.746094 44.800781 L 54.355469 33.753906 C 54.429688 32.398438 53.941406 31.078125 53 30.101562 Z M 53 30.101562 "/>
<path style=" stroke:none;fill-rule:nonzero;fill:rgb(91.372549%,32.54902%,32.54902%);fill-opacity:1;" d="M 53.746094 45.535156 L 43.667969 45.535156 C 42.671875 45.535156 41.722656 45.050781 41.140625 44.238281 C 40.828125 43.808594 40.328125 43.550781 39.796875 43.550781 L 26.984375 43.550781 C 26.453125 43.550781 25.953125 43.808594 25.640625 44.238281 C 25.054688 45.050781 24.109375 45.535156 23.109375 45.535156 L 13.035156 45.535156 C 12.644531 45.535156 12.324219 45.230469 12.304688 44.84375 L 11.691406 33.792969 C 11.605469 32.242188 12.175781 30.710938 13.253906 29.59375 L 17.136719 25.5625 L 19.5 17.316406 C 19.507812 17.296875 19.515625 17.273438 19.523438 17.253906 C 20.042969 15.914062 21.359375 15.011719 22.796875 15.011719 L 43.980469 15.011719 C 45.421875 15.011719 46.738281 15.914062 47.257812 17.253906 C 47.265625 17.273438 47.273438 17.296875 47.277344 17.316406 L 49.644531 25.5625 L 53.527344 29.59375 C 54.605469 30.710938 55.171875 32.242188 55.085938 33.792969 L 54.476562 44.84375 C 54.453125 45.230469 54.132812 45.535156 53.746094 45.535156 Z M 26.984375 42.085938 L 39.792969 42.085938 C 40.792969 42.085938 41.742188 42.570312 42.324219 43.382812 C 42.636719 43.8125 43.136719 44.070312 43.667969 44.070312 L 53.054688 44.070312 L 53.625 33.710938 C 53.6875 32.566406 53.269531 31.433594 52.472656 30.609375 L 48.464844 26.445312 C 48.382812 26.359375 48.320312 26.253906 48.289062 26.140625 L 45.878906 17.753906 C 45.570312 16.988281 44.808594 16.472656 43.980469 16.472656 L 22.796875 16.472656 C 21.96875 16.472656 21.207031 16.988281 20.898438 17.753906 L 18.492188 26.140625 C 18.457031 26.253906 18.398438 26.359375 18.316406 26.445312 L 14.308594 30.609375 C 13.511719 31.433594 13.089844 32.566406 13.152344 33.710938 L 13.726562 44.070312 L 23.109375 44.070312 C 23.640625 44.070312 24.144531 43.8125 24.453125 43.382812 C 25.039062 42.570312 25.984375 42.085938 26.984375 42.085938 Z M 26.984375 42.085938 "/>
<path style=" stroke:none;fill-rule:nonzero;fill:rgb(100%,100%,100%);fill-opacity:1;" d="M 24.199219 37.625 L 16.269531 36.964844 C 15.648438 36.914062 15.136719 36.457031 15.015625 35.847656 L 14.773438 34.628906 C 14.574219 33.636719 15.46875 32.769531 16.453125 32.996094 L 24.625 34.875 C 25.257812 35.019531 25.707031 35.582031 25.707031 36.234375 C 25.710938 37.050781 25.011719 37.691406 24.199219 37.625 Z M 24.199219 37.625 "/>
<path style=" stroke:none;fill-rule:nonzero;fill:rgb(100%,100%,100%);fill-opacity:1;" d="M 42.136719 37.625 L 50.066406 36.964844 C 50.6875 36.914062 51.199219 36.457031 51.320312 35.847656 L 51.5625 34.628906 C 51.761719 33.636719 50.871094 32.769531 49.882812 32.996094 L 41.710938 34.875 C 41.078125 35.019531 40.628906 35.582031 40.628906 36.234375 C 40.628906 37.050781 41.324219 37.691406 42.136719 37.625 Z M 42.136719 37.625 "/>
<path style=" stroke:none;fill-rule:nonzero;fill:rgb(89.803922%,89.803922%,89.803922%);fill-opacity:1;" d="M 43.570312 16.136719 L 23.210938 16.136719 C 22.105469 16.136719 21.117188 16.816406 20.71875 17.847656 L 18.394531 25.9375 L 48.386719 25.9375 L 46.0625 17.84375 C 45.664062 16.816406 44.671875 16.136719 43.570312 16.136719 Z M 43.570312 16.136719 "/>
<path style=" stroke:none;fill-rule:nonzero;fill:rgb(73.72549%,26.666667%,26.666667%);fill-opacity:1;" d="M 38.097656 40.652344 L 28.679688 40.652344 C 28.417969 40.652344 28.203125 40.441406 28.203125 40.175781 C 28.203125 39.914062 28.417969 39.699219 28.679688 39.699219 L 38.097656 39.699219 C 38.363281 39.699219 38.574219 39.914062 38.574219 40.175781 C 38.574219 40.441406 38.363281 40.652344 38.097656 40.652344 Z M 38.097656 40.652344 "/>
<path style=" stroke:none;fill-rule:nonzero;fill:rgb(73.72549%,26.666667%,26.666667%);fill-opacity:1;" d="M 38.097656 38.269531 L 28.679688 38.269531 C 28.417969 38.269531 28.203125 38.058594 28.203125 37.792969 C 28.203125 37.53125 28.417969 37.316406 28.679688 37.316406 L 38.097656 37.316406 C 38.363281 37.316406 38.574219 37.53125 38.574219 37.792969 C 38.574219 38.058594 38.363281 38.269531 38.097656 38.269531 Z M 38.097656 38.269531 "/>
</g>
</svg>
